<svg xmlns="http://www.w3.org/2000/svg" xmlns:xlink="http://www.w3.org/1999/xlink" version="1.1" x="0px" y="0px" viewBox="0 0 389.799 630.00125" style="enable-background:new 0 0 389.799 504.001;" xml:space="preserve"><g><path d="M102.549,122.075c0.16,0.014,0.586,0.045,1.204,0.045c2.324,0,7.364-0.443,11.148-3.917   c1.95-1.792,4.272-5.103,4.258-10.703c-0.006-2.206-1.796-3.99-4-3.99c-0.003,0-0.007,0-0.011,0   c-2.209,0.006-3.995,1.801-3.989,4.01c0.006,2.172-0.533,3.732-1.646,4.769c-1.858,1.731-5.159,1.898-6.284,1.815   c-2.198-0.179-4.12,1.443-4.313,3.636C98.722,119.941,100.349,121.881,102.549,122.075z"/><path d="M104.34,129.456c-2.063,0.758-3.113,3.033-2.37,5.102s3.027,3.143,5.104,2.417c0.948-0.333,3.842-0.962,5.811,0.103   c1.192,0.645,2.008,1.915,2.492,3.881c0.449,1.823,2.083,3.043,3.881,3.043c0.316,0,0.639-0.038,0.96-0.117   c2.146-0.529,3.455-2.696,2.927-4.841c-1.307-5.301-4.273-7.844-6.532-9.044C111.149,127.095,105.019,129.206,104.34,129.456z"/><path d="M131.091,132.53c0.979,0,1.959-0.357,2.729-1.077c1.614-1.508,1.7-4.04,0.192-5.654c-3.794-4.061-0.635-8.257,0.047-9.068   c1.434-1.663,1.259-4.174-0.397-5.622c-1.663-1.455-4.19-1.285-5.644,0.378c-3.064,3.504-6.978,12.147,0.148,19.774   C128.955,132.104,130.022,132.53,131.091,132.53z"/><path d="M234.89,155.991c-6.617,0-12,5.383-12,12s5.383,12,12,12s12-5.383,12-12S241.507,155.991,234.89,155.991z M234.89,171.991   c-2.206,0-4-1.794-4-4s1.794-4,4-4s4,1.794,4,4S237.096,171.991,234.89,171.991z"/><path d="M166.9,167.991c0-6.617-5.383-12-12-12s-12,5.383-12,12s5.383,12,12,12S166.9,174.607,166.9,167.991z M150.9,167.991   c0-2.206,1.794-4,4-4s4,1.794,4,4s-1.794,4-4,4S150.9,170.196,150.9,167.991z"/><path d="M141.721,127.838c0.148,0.044,15.039,4.437,23.645,7.877c0.486,0.194,0.989,0.287,1.483,0.287   c1.588,0,3.09-0.952,3.715-2.516c0.82-2.051-0.178-4.379-2.229-5.199c-8.951-3.579-23.73-7.939-24.355-8.123   c-2.121-0.625-4.342,0.589-4.966,2.708S139.601,127.214,141.721,127.838z"/><path d="M222.851,136.001c0.494,0,0.996-0.092,1.482-0.286c8.611-3.438,23.497-7.834,23.646-7.878   c2.119-0.624,3.331-2.848,2.707-4.967c-0.624-2.119-2.848-3.332-4.967-2.707c-0.624,0.184-15.394,4.544-24.354,8.122   c-2.052,0.819-3.051,3.146-2.231,5.198C219.76,135.049,221.263,136.001,222.851,136.001z"/><path d="M180.888,143.84c1.115,0,2.224-0.463,3.015-1.369c0.224-0.256,5.483-6.343,6.923-13.703c0.424-2.168-0.99-4.27-3.158-4.694   c-2.168-0.427-4.269,0.99-4.693,3.158c-1.014,5.184-5.013,9.879-5.102,9.982c-1.448,1.664-1.275,4.187,0.387,5.638   C179.017,143.516,179.954,143.84,180.888,143.84z"/><path d="M205.897,142.472c0.79,0.904,1.896,1.367,3.009,1.367c0.931,0,1.866-0.324,2.624-0.982c1.665-1.447,1.842-3.972,0.399-5.64   c-0.041-0.047-4.084-4.769-5.104-9.984c-0.426-2.167-2.526-3.581-4.693-3.158c-2.168,0.424-3.582,2.526-3.158,4.694   C200.413,136.128,205.673,142.216,205.897,142.472z"/><path d="M150.9,204.001c0,11.028,8.972,20,20,20h48c5.337,0,10.36-2.077,14.153-5.857c3.771-3.783,5.847-8.806,5.847-14.143   c0-11.028-8.972-20-20-20h-48c-5.337,0-10.36,2.077-14.153,5.857C152.976,193.641,150.9,198.664,150.9,204.001z M218.9,216.001h-48   c-5.213,0-9.647-3.347-11.3-8h70.607c-0.587,1.668-1.53,3.201-2.81,4.486C225.122,214.752,222.105,216.001,218.9,216.001z    M170.9,192.001h48c5.213,0,9.647,3.347,11.3,8h-70.607c0.587-1.668,1.53-3.201,2.81-4.486   C164.677,193.249,167.694,192.001,170.9,192.001z"/><path d="M247.195,211.676c-2.194,0.25-3.771,2.233-3.521,4.428c0.21,1.834-0.381,2.518-0.574,2.743   c-1.083,1.254-3.518,1.608-4.292,1.634c-2.197,0.05-3.944,1.864-3.908,4.065c0.035,2.187,1.819,3.934,3.998,3.934   c0.021,0,0.044,0,0.066,0c0.657-0.011,6.522-0.225,10.136-4.341c1.431-1.63,3.03-4.505,2.523-8.943   C251.372,213.001,249.391,211.427,247.195,211.676z"/><path d="M240.678,233.315c-2.002,0.934-2.867,3.314-1.934,5.316c0.934,2.001,3.314,2.869,5.316,1.934   c0.372-0.173,2.571-0.929,4.029-0.339c0.27,0.109,1.089,0.441,1.732,2.129c0.607,1.596,2.126,2.577,3.738,2.577   c0.474,0,0.955-0.084,1.424-0.263c2.064-0.787,3.1-3.098,2.313-5.162c-1.557-4.086-4.232-5.896-6.202-6.694   C246.238,230.842,241.233,233.056,240.678,233.315z"/><path d="M260.358,233.129c0.745,0.613,1.645,0.912,2.54,0.912c1.154,0,2.3-0.497,3.09-1.458c1.404-1.706,1.16-4.226-0.546-5.63   c-2.342-1.928-1.35-4.134-0.546-5.281c1.287-1.771,0.91-4.253-0.852-5.562c-1.774-1.318-4.279-0.947-5.597,0.827   C255.739,220.584,254.013,227.906,260.358,233.129z"/><path d="M108.431,361.334c1.22-2.405,2.231-6.445,0.121-12.036c-0.78-2.066-3.083-3.109-5.155-2.329   c-2.066,0.78-3.109,3.088-2.329,5.155c0.859,2.277,0.943,4.145,0.249,5.55c-1.076,2.176-3.788,3.044-3.91,3.082   c-2.107,0.604-3.338,2.797-2.751,4.914c0.491,1.771,2.1,2.932,3.853,2.932c0.354,0,0.714-0.047,1.071-0.146   C100.203,368.282,105.753,366.611,108.431,361.334z"/><path d="M125.115,372.761c-4.798-2.914-9.463-3.751-13.866-2.482c-6.746,1.941-9.979,8.059-10.326,8.75   c-0.989,1.975-0.191,4.378,1.784,5.368c0.575,0.288,1.187,0.425,1.789,0.425c1.466,0,2.877-0.809,3.579-2.209   c0.018-0.036,1.967-3.662,5.386-4.646c2.168-0.626,4.692-0.074,7.502,1.632c1.889,1.146,4.349,0.545,5.495-1.343   S127.004,373.909,125.115,372.761z"/><path d="M128.448,357.84c-1.751-0.476-2.884-1.224-3.461-2.285c-0.874-1.607-0.458-3.869-0.222-4.613   c0.692-2.082-0.423-4.337-2.503-5.047c-2.095-0.716-4.364,0.401-5.078,2.492c-0.203,0.594-1.905,5.944,0.72,10.889   c1.13,2.127,3.512,4.943,8.446,6.285c0.351,0.095,0.704,0.141,1.051,0.141c1.761,0,3.374-1.171,3.858-2.952   C131.839,360.618,130.58,358.42,128.448,357.84z"/><path d="M292.397,360.756c-0.028-0.008-2.819-0.868-3.914-3.083c-0.694-1.405-0.61-3.272,0.249-5.55   c0.78-2.067-0.263-4.375-2.329-5.155c-2.067-0.78-4.375,0.263-5.155,2.329c-2.11,5.591-1.099,9.631,0.121,12.036   c2.678,5.277,8.228,6.948,8.852,7.121c0.356,0.099,0.715,0.146,1.066,0.146c1.734,0,3.319-1.146,3.824-2.897   C295.719,363.597,294.497,361.387,292.397,360.756z"/><path d="M278.55,370.279c-4.404-1.268-9.069-0.431-13.866,2.482c-1.889,1.147-2.489,3.607-1.343,5.495   c1.147,1.888,3.608,2.49,5.495,1.343c2.789-1.694,5.297-2.246,7.453-1.646c3.438,0.961,5.383,4.563,5.447,4.685   c0.705,1.385,2.109,2.185,3.566,2.185c0.603,0,1.214-0.137,1.789-0.425c1.976-0.99,2.773-3.394,1.784-5.368   C288.529,378.337,285.296,372.22,278.55,370.279z"/><path d="M271.895,359.276c2.625-4.944,0.923-10.295,0.72-10.889c-0.708-2.075-2.948-3.17-5.034-2.485   c-2.082,0.688-3.216,2.945-2.548,5.035c0.235,0.738,0.655,3.007-0.221,4.618c-0.577,1.062-1.71,1.81-3.461,2.285   c-2.132,0.58-3.391,2.777-2.812,4.909c0.484,1.781,2.098,2.952,3.858,2.952c0.347,0,0.7-0.046,1.051-0.141   C268.383,364.219,270.765,361.403,271.895,359.276z"/><path d="M378.435,347.268c-4.28-16.273-7.977-30.328-7.537-43.131c0.059-1.708-0.975-3.265-2.572-3.874   c-1.599-0.611-3.404-0.136-4.499,1.177c-0.686,0.823-13.76,16.729-18.888,38.034c-4.537-15.486-3.638-27.188-2.699-39.413   c1.008-13.118,2.05-26.683-3.485-45.128c-0.494-1.784-1.014-3.534-1.535-5.285c-3.466-11.642-6.738-22.639-2.394-44.88   c0.362-1.854-0.622-3.708-2.36-4.448c-1.74-0.74-3.757-0.16-4.841,1.385c-4.345,6.198-8.169,9.716-11.542,12.82   c-4.51,4.15-8.06,7.721-10.877,13.825c-0.537-4.207-1.247-8.335-2.176-11.949c4.197-3.783,7.472-8.672,9.535-14.3   c6.134-16.689-0.329-34.821-14.406-40.417c-0.101-0.04-0.206-0.075-0.308-0.114c13.366-58.568-2.087-94.369-17.638-114.191   c-19.636-25.028-50.714-39.379-85.271-39.379c-0.013,0-0.028,0-0.041,0c-14.508,0-20.351-1.476-39.04-7.79   c-1.224-0.415-2.575-0.211-3.623,0.547c-1.048,0.757-1.665,1.975-1.657,3.268c0.002,0.264,0.047,4.966,1.059,9.946   c-6.068,0.346-17.51,1.024-33.393,2.077c-1.367,0.091-2.593,0.875-3.248,2.078s-0.649,2.658,0.016,3.855   c0.144,0.258,3.026,5.375,8.914,10.659c-21.014,17.569-48.679,55.716-31.99,128.933c-0.098,0.037-0.199,0.07-0.296,0.109   c-14.078,5.596-20.541,23.728-14.408,40.414c2.063,5.63,5.337,10.518,9.536,14.302c-0.929,3.614-1.639,7.742-2.176,11.949   c-2.817-6.104-6.367-9.675-10.877-13.825c-3.373-3.104-7.197-6.622-11.542-12.82c-1.084-1.546-3.104-2.126-4.841-1.385   c-1.738,0.74-2.723,2.594-2.36,4.448c4.345,22.242,1.072,33.238-2.394,44.88c-0.521,1.751-1.041,3.501-1.512,5.203   c-5.559,18.527-4.517,32.092-3.509,45.21c0.938,12.226,1.838,23.927-2.699,39.413c-5.128-21.305-18.202-37.211-18.888-38.034   c-1.095-1.313-2.902-1.785-4.499-1.177c-1.598,0.609-2.631,2.166-2.572,3.874c0.439,12.803-3.257,26.857-7.537,43.131   c-10.109,38.438-22.691,86.273,7.886,154.371c0.646,1.437,2.074,2.361,3.649,2.361h17.08c1.988,0,3.675-1.461,3.959-3.429   c1.208-8.37,2.676-16.574,4.351-24.456c6.617-2.102,18.99-4.33,38.187-1.502l0.424,25.452c0.036,2.187,1.819,3.934,3.998,3.934   c0.022,0,0.045,0,0.067-0.001c2.209-0.036,3.97-1.856,3.933-4.065l-1.57-94.25c-0.029-1.768-1.215-3.306-2.916-3.784   c-5.251-1.477-9.563-4.77-12.814-9.781c-6.584-10.182-6.698-23.985-6.698-24.118c0-9.879,4.48-13.657,8-15.103v15.103   c0,2.209,1.791,4,4,4s4-1.791,4-4v-20c0-3.801,0.976-6.476,2.9-7.951c2.812-2.155,7.318-1.711,9.31-1.177   c2.773,0.747,5.753,0.338,8.387-1.154c7.083-4.028,13.281-0.484,14.438,0.26c1.181,0.765,2.492,1.272,3.898,1.51   c0.95,0.18,1.945,0.221,2.957,0.124c3.67-0.345,6.461,0.39,8.521,2.264c3.708,3.37,5.588,10.814,5.588,22.125   c0,21.77-3.954,26.053-6.571,28.887l-0.383,0.416c-0.78,0.854-1.152,2.006-1.02,3.155l12,104c0.235,2.039,1.965,3.542,3.969,3.542   c0.153,0,0.308-0.009,0.464-0.026c2.194-0.253,3.768-2.237,3.515-4.432L143.08,397.338c4.218-4.869,7.819-11.817,7.819-33.338   c0-14.044-2.607-22.956-8.206-28.045c-1.467-1.333-3.114-2.358-4.924-3.091c7.548-4.675,15.417-8.67,23.518-11.954   c5.268,13.795,18.507,23.089,33.612,23.089c15.107,0,28.349-9.298,33.615-23.098c8.09,3.28,15.96,7.278,23.517,11.961   c-1.811,0.733-3.458,1.758-4.925,3.092c-5.599,5.089-8.206,14.001-8.206,28.045c0,21.521,3.602,28.469,7.819,33.338   l-11.793,102.204c-0.253,2.194,1.32,4.179,3.515,4.432c0.156,0.018,0.311,0.026,0.464,0.026c2.004,0,3.733-1.503,3.969-3.542   l12-104c0.133-1.149-0.239-2.301-1.02-3.155l-0.383-0.416c-2.617-2.834-6.571-7.117-6.571-28.887   c0-11.311,1.88-18.755,5.588-22.125c2.062-1.875,4.846-2.612,8.52-2.264c1.014,0.097,2.01,0.057,2.959-0.124   c1.406-0.237,2.717-0.745,3.885-1.501c1.171-0.753,7.369-4.297,14.456-0.267c2.628,1.49,5.606,1.896,8.381,1.153   c1.991-0.535,6.501-0.979,9.312,1.176c1.925,1.476,2.9,4.15,2.9,7.951v20c0,2.209,1.791,4,4,4s4-1.791,4-4v-15.103   c3.519,1.446,8,5.222,8,15.097c0,0.139-0.114,13.942-6.696,24.119c-3.253,5.017-7.565,8.31-12.816,9.786   c-1.701,0.479-2.887,2.017-2.916,3.784l-1.57,94.25c-0.037,2.209,1.724,4.029,3.933,4.065c0.022,0.001,0.045,0.001,0.067,0.001   c2.179,0,3.962-1.747,3.998-3.934l0.424-25.452c19.207-2.83,31.575-0.601,38.187,1.501c1.674,7.88,3.143,16.085,4.351,24.456   c0.284,1.968,1.971,3.429,3.959,3.429h17.08c1.575,0,3.004-0.925,3.649-2.361C401.126,433.542,388.544,385.706,378.435,347.268z    M305.054,199.344c-1.842,5.025-4.881,9.265-8.784,12.29c-0.102,0.067-0.191,0.15-0.286,0.226c-2.617,1.959-5.47,3.251-8.345,3.806   c3.911-12.924,6.954-28.605,8.908-45.941C305.672,174.361,309.495,187.262,305.054,199.344z M132.73,35.87   c1.018-0.764,1.611-1.966,1.6-3.238c-0.013-1.272-0.63-2.463-1.662-3.207c-2.693-1.94-4.871-4.027-6.539-5.875   c19.691-1.274,30.788-1.859,30.91-1.865c1.28-0.067,2.451-0.744,3.148-1.82c0.696-1.076,0.836-2.421,0.374-3.617   c-0.775-2.006-1.248-4.405-1.535-6.548c15.152,4.969,21.921,6.3,35.875,6.3c0.014,0,0.024,0,0.038,0   c32.084,0,60.871,13.236,78.979,36.317c19.265,24.555,25.391,58.513,17.948,98.761c-15.945-34.651-36.41-48.393-56.264-61.722   c-12.062-8.098-23.454-15.747-33.635-27.922c-1.077-1.29-2.849-1.768-4.434-1.194c-1.581,0.574-2.635,2.077-2.635,3.76   c0,5.007,1.423,14.145,2.589,20.79c-15.354-9.37-27.128-26.81-27.261-27.009c-0.917-1.376-2.585-2.045-4.204-1.684   c-1.615,0.362-2.84,1.682-3.081,3.32c-2.186,14.83-6.352,24.657-9.701,30.54c-2.604-10.382-6.944-16.101-7.177-16.402   c-0.949-1.229-2.526-1.797-4.04-1.457c-1.516,0.34-2.698,1.526-3.031,3.043c-1.381,6.276-4.239,14.141-8.496,23.375   c-0.925,2.006-0.048,4.382,1.958,5.307c2.012,0.926,4.384,0.048,5.308-1.958c2.51-5.444,4.565-10.469,6.154-15.036   c1.283,3.502,2.489,8.048,3,13.542c0.141,1.514,1.127,2.817,2.547,3.363c1.419,0.546,3.025,0.239,4.145-0.79   c0.464-0.428,10.294-9.716,15.571-33.271c6.594,8.071,18.393,20.505,32.234,26.042c1.365,0.548,2.916,0.3,4.043-0.639   c1.129-0.939,1.652-2.42,1.364-3.86c-0.024-0.125-1.622-8.148-2.771-15.882c8.716,8.326,18.021,14.574,27.093,20.664   c20.79,13.958,42.28,28.402,57.867,68.933c-2.097,20.597-5.887,39.605-10.704,53.61c-2.131,6.206-4.432,11.384-6.838,15.393   c-8.833,14.731-29.448,34.238-53.84,42.258c-7.655,2.521-15.303,3.799-22.729,3.799s-15.074-1.278-22.731-3.8   c-24.39-8.02-45.005-27.526-53.839-42.259c-2.405-4.006-4.706-9.185-6.839-15.396c-1.39-4.028-2.709-8.52-3.921-13.349   c-2.931-11.677-5.245-25.402-6.726-39.767c1.615-2.38,5.405-8.029,10.109-15.485c1.179-1.868,0.62-4.338-1.248-5.517   c-1.869-1.18-4.338-0.62-5.518,1.249c-2.093,3.316-4,6.268-5.608,8.723C88.104,102.227,100.08,60.363,132.73,35.87z    M84.744,199.341c-4.44-12.079-0.617-24.979,8.509-29.616c1.525,13.476,3.773,26.32,6.557,37.41c0.745,2.97,1.531,5.822,2.35,8.531   c-2.876-0.555-5.73-1.848-8.345-3.806c-0.094-0.075-0.182-0.157-0.283-0.224C89.624,208.607,86.587,204.368,84.744,199.341z    M85.377,408.638l0.964,57.867c-16.064-2.231-27.835-1.177-36.061,0.766c5.864-24.452,14.099-46.535,24.542-65.812   C77.853,404.653,81.374,407.068,85.377,408.638z M194.9,336.001c-11.73,0-21.995-7.219-26.103-17.921   c0.847-0.292,1.71-0.583,2.608-0.874c1.618-0.525,2.727-2.017,2.764-3.717l0.618-28.197c6.759,1.783,13.504,2.699,20.114,2.699   c6.61,0,13.356-0.916,20.114-2.699l0.618,28.197c0.037,1.7,1.146,3.191,2.764,3.717c0.891,0.289,1.751,0.582,2.607,0.876   C216.893,328.782,206.629,336.001,194.9,336.001z M303.458,466.505l0.964-57.867c4.003-1.57,7.523-3.985,10.555-7.179   c10.443,19.276,18.678,41.358,24.542,65.812C331.296,465.328,319.528,464.274,303.458,466.505z"/></g><text x="0" y="519.001" fill="#000000" font-size="5px" font-weight="bold" font-family="'Helvetica Neue', Helvetica, Arial-Unicode, Arial, Sans-serif">Created by Amethyst Studio</text><text x="0" y="524.001" fill="#000000" font-size="5px" font-weight="bold" font-family="'Helvetica Neue', Helvetica, Arial-Unicode, Arial, Sans-serif">from the Noun Project</text></svg>