<svg xmlns="http://www.w3.org/2000/svg" xmlns:xlink="http://www.w3.org/1999/xlink" version="1.1" x="0px" y="0px" viewBox="0 0 512 640" style="enable-background:new 0 0 512 512;" xml:space="preserve"><g><ellipse transform="matrix(0.9999 -1.677494e-02 1.677494e-02 0.9999 -2.5127 4.5012)" cx="267.1" cy="152" rx="30.6" ry="30.6"/><path d="M208.8,293.8c-14-7-29.8-8.2-44.6-3.3c-30.6,10.1-47.3,43.2-37.3,73.9c8.1,24.6,31,40.2,55.6,40.2c6.1,0,12.2-0.9,18.3-2.9   c30.6-10.1,47.3-43.2,37.3-73.9C233.2,312.9,222.8,300.8,208.8,293.8z M209.7,359.8c-3.7,7.3-9.9,12.7-17.7,15.2   c-16,5.3-33.2-3.4-38.5-19.4c-5.3-16,3.5-33.3,19.4-38.5c3.1-1,6.4-1.5,9.6-1.5c4.7,0,9.4,1.1,13.7,3.3c7.3,3.7,12.7,10,15.2,17.7   v0C214,344.2,213.4,352.5,209.7,359.8z"/><path d="M414.3,269.7c-10.1-30.6-43.2-47.3-73.9-37.3c-14.8,4.9-26.9,15.3-33.9,29.2s-8.2,29.8-3.3,44.6   c4.9,14.8,15.3,26.9,29.2,33.9c8.3,4.2,17.3,6.3,26.3,6.3c6.2,0,12.3-1,18.4-3c14.8-4.9,26.9-15.3,33.9-29.2   S419.2,284.5,414.3,269.7z M385.9,301.7c-3.7,7.3-10,12.7-17.7,15.2c-7.7,2.5-16,1.9-23.3-1.7c-7.3-3.7-12.7-10-15.2-17.7   c-2.5-7.7-1.9-16,1.7-23.3c3.7-7.3,9.9-12.7,17.7-15.2c3.2-1,6.4-1.5,9.5-1.5c12.8,0,24.8,8.1,29,21   C390.2,286.2,389.6,294.4,385.9,301.7z"/><path d="M283,232.7c4.8,2.5,10.5,2.1,14.9-1.1l38.7-39.9l-11.1-15.1l-37.1,27.2l-49-26.1c-3.6-1.9-7.9-2.2-11.7-0.7   c-3.8,1.5-6.8,4.6-8.1,8.5L202,236.6c-4.1,11.8-3.2,24.4,2.4,35.5c5.6,11.1,15.3,19.3,27.2,22.9l35.4,10.9l0.9,47.8l20.3-0.4   l6.6-58c-0.1-6-4.1-11.3-9.9-13.1l-41.8-12.9l17.7-48.4L283,232.7z"/></g><text x="0" y="527" fill="#000000" font-size="5px" font-weight="bold" font-family="'Helvetica Neue', Helvetica, Arial-Unicode, Arial, Sans-serif">Created by Pixelz Studio</text><text x="0" y="532" fill="#000000" font-size="5px" font-weight="bold" font-family="'Helvetica Neue', Helvetica, Arial-Unicode, Arial, Sans-serif">from the Noun Project</text></svg>