<svg xmlns="http://www.w3.org/2000/svg" xmlns:xlink="http://www.w3.org/1999/xlink" version="1.1" x="0px" y="0px" viewBox="0 0 512 640" style="enable-background:new 0 0 512 512;" xml:space="preserve"><g><ellipse transform="matrix(0.297 -0.9549 0.9549 0.297 59.1006 364.1268)" cx="276.8" cy="141.9" rx="30.6" ry="30.6"/><path d="M377.6,220.3l-45.6,9.3l-30.8-42.5c-2-2.7-4.9-4.6-8.1-5.4l-36-8.5c-1.9-0.5-4-0.5-5.9-0.1l-58.6,11.6   c-3,0.6-5.8,2.2-7.8,4.5l-32,46.5l16.1,14.1l33.8-38.6L239,204l-10.5,50.3c-6.1,29.1,5.7,59.1,29.9,76.3l29.1,20.7l-7.7,54.6   l19.9,2.8l16.7-62c0.7-5.2-1.5-10.3-5.8-13.4l-36.1-25.6c-0.2-0.1-0.3-0.3-0.5-0.4l17.6-85.8l22.9,31.6c2.7,3.7,6.9,5.8,11.3,5.8   c0.9,0,1.9-0.1,2.8-0.3l53.2-17L377.6,220.3z"/><path d="M234.2,315.8l-21.6,21.9l-47.7-9.3l-4.3,22.1l54,16c0.9,0.2,1.8,0.3,2.7,0.3c3.7,0,7.3-1.5,10-4.2l26.4-26.9   C245.9,330.3,239.4,323.4,234.2,315.8z"/></g><text x="0" y="527" fill="#000000" font-size="5px" font-weight="bold" font-family="'Helvetica Neue', Helvetica, Arial-Unicode, Arial, Sans-serif">Created by Pixelz Studio</text><text x="0" y="532" fill="#000000" font-size="5px" font-weight="bold" font-family="'Helvetica Neue', Helvetica, Arial-Unicode, Arial, Sans-serif">from the Noun Project</text></svg>