<svg xmlns="http://www.w3.org/2000/svg" xmlns:xlink="http://www.w3.org/1999/xlink" version="1.1" x="0px" y="0px" viewBox="0 0 512 640" style="enable-background:new 0 0 512 512;" xml:space="preserve"><g><ellipse transform="matrix(0.297 -0.9549 0.9549 0.297 11.5796 368.4297)" cx="256" cy="176.4" rx="30.6" ry="30.6"/><path d="M383.8,90v38H128.2V94.3h-28v74.4h28V135h26.9l3.6,55.9C161,202,168,211.6,178,217c0.1,0.1,0.3,0.1,0.4,0.2l43.4,22   c0.9,0.5,1.9,0.8,2.9,1.1v86.9l-56,27.2c-4.5,2.2-7.5,6.7-7.9,11.7l-4.1,62.9l22.5,2.1l9-55l46.4-22.5h40.5l45.8,22.4l8.1,53.5   l21.4-0.6l-1.8-62.1c-0.1-5.2-3.2-9.9-7.9-12.2L284.7,327v-86.8c0.9-0.2,1.8-0.6,2.6-1l43.9-22c0.2-0.1,0.5-0.3,0.7-0.4   c9.6-5.5,16.3-14.9,18.6-25.7l3.8-56.2h29.3v29.4h28V90H383.8z M323.2,185.6c-0.6,2.9-2.3,5.4-4.8,6.9l-40.5,20.3h-46.3l-40.1-20.4   c-2.7-1.5-4.6-4.1-5.2-7.1L175.8,135h157.8L323.2,185.6z"/></g><text x="0" y="527" fill="#000000" font-size="5px" font-weight="bold" font-family="'Helvetica Neue', Helvetica, Arial-Unicode, Arial, Sans-serif">Created by Pixelz Studio</text><text x="0" y="532" fill="#000000" font-size="5px" font-weight="bold" font-family="'Helvetica Neue', Helvetica, Arial-Unicode, Arial, Sans-serif">from the Noun Project</text></svg>